<?xml version="1.0" encoding="UTF-8" standalone="no"?><!DOCTYPE svg PUBLIC "-//W3C//DTD SVG 1.1//EN" "http://www.w3.org/Graphics/SVG/1.1/DTD/svg11.dtd"><svg width="100%" height="100%" viewBox="0 0 834 834" version="1.1" xmlns="http://www.w3.org/2000/svg" xmlns:xlink="http://www.w3.org/1999/xlink" xml:space="preserve" xmlns:serif="http://www.serif.com/" style="fill-rule:evenodd;clip-rule:evenodd;stroke-linejoin:round;stroke-miterlimit:2;"><path d="M833.333,86.914l0,659.506c0,47.969 -38.945,86.914 -86.914,86.914l-659.506,0c-47.969,0 -86.914,-38.945 -86.914,-86.914l0,-659.506c0,-47.969 38.945,-86.914 86.914,-86.914l659.506,-0c47.969,0 86.914,38.945 86.914,86.914Z" style="fill:#f7faf6;"/><rect x="90.532" y="90.805" width="182.292" height="182.292" style="fill:#186640;"/><rect x="560.347" y="90.805" width="182.292" height="182.292" style="fill:#186640;"/><rect x="325.466" y="90.805" width="182.292" height="182.292" style="fill:#0ae178;"/><rect x="560.401" y="325.48" width="182.292" height="182.292" style="fill:#0ae178;"/><rect x="560.51" y="560.237" width="182.292" height="182.292" style="fill:#186640;"/><rect x="90.532" y="325.48" width="182.292" height="182.292" style="fill:#0ae178;"/><rect x="325.521" y="325.48" width="182.292" height="182.292" style="fill:#186640;"/><rect x="90.586" y="560.237" width="182.292" height="182.292" style="fill:#186640;"/><rect x="325.575" y="560.237" width="182.292" height="182.292" style="fill:#0ae178;"/></svg>